<?xml version="1.0" encoding="UTF-8"?>
<svg id="Layer_1" xmlns="http://www.w3.org/2000/svg" version="1.1" viewBox="0 0 356.3 64.59">
  <!-- Generator: Adobe Illustrator 29.8.1, SVG Export Plug-In . SVG Version: 2.1.1 Build 2)  -->
  <defs>
    <style>
      .st0 {
        fill: #fff;
      }
    </style>
  </defs>
  <g>
    <g>
      <path class="st0" d="M243.42,49.94c-4.08-.13-8.1-.39-11.85-.59v13.96h-13.36V21.1c6.98-.59,19.42-1.65,30.74-1.65,19.35,0,33.77,2.3,33.77,15.47,0,10.47-9.41,13.89-23.3,14.81l-16,.2ZM268.7,34.93c0-4.67-6.19-5.53-18.23-5.53-7.44,0-14.48.39-18.89.66v9.48c4.41.33,11.45.59,18.89.59,12.05,0,18.23-.72,18.23-5.2Z"/>
      <polygon class="st0" points="256.64 63.07 228.51 48.75 232.61 40.7 241.93 42.54 282.72 63.3 256.64 63.07"/>
    </g>
    <path class="st0" d="M196.4,20.88h13.36v21.46c0,15.14-13.36,22.25-33.57,22.25s-33.57-7.11-33.57-22.25v-21.46h13.36v21.46c0,8.36,8.36,12.31,20.21,12.31s20.21-3.95,20.21-12.31v-21.46Z"/>
    <path class="st0" d="M112.64,20.82h-15.8l-25.81,33.73v9.19h67.58v-8.97h.02l-25.99-33.95ZM85.92,54.77l18.5-24.21,18.54,24.21h-37.04Z"/>
    <path class="st0" d="M330.31,20.82h-15.8l-25.81,33.73v9.19h67.58v-8.97h.02l-25.99-33.95ZM303.59,54.77l18.5-24.21,18.54,24.21h-37.04Z"/>
  </g>
  <ellipse class="st0" cx="33.41" cy="32.09" rx="6.18" ry="32.09"/>
  <ellipse class="st0" cx="47.23" cy="32.09" rx="3.97" ry="29.31"/>
  <ellipse class="st0" cx="57.52" cy="32.09" rx="3.09" ry="22.8"/>
  <ellipse class="st0" cx="65.38" cy="32.09" rx="1.77" ry="13.03"/>
  <ellipse class="st0" cx="19.92" cy="32.09" rx="3.97" ry="29.31"/>
  <ellipse class="st0" cx="9.63" cy="32.09" rx="3.09" ry="22.8"/>
  <ellipse class="st0" cx="1.77" cy="32.09" rx="1.77" ry="13.03"/>
</svg>